<svg width="40" height="39" viewBox="0 0 40 39" fill="none" xmlns="http://www.w3.org/2000/svg">
<circle cx="18" cy="18" r="18" fill="#FFA501"/>
<path d="M15 15V35.5205H23.024V36.9877H21.5574V38.4526H33.4425V36.9877H31.9759V35.5205H40V15H15ZM30.511 36.9877H24.489V35.5205H30.511V36.9877H30.511ZM38.5351 34.0556H16.4649V31.1222H38.5351V34.0556H38.5351ZM38.5351 29.6573H16.4649V16.4649H38.5351V29.6573H38.5351Z" fill="black"/>
<path d="M24.9582 20.4134L23.9223 19.3776L20.2388 23.0611L23.9223 26.7446L24.9582 25.7088L22.3105 23.0611L24.9582 20.4134Z" fill="black"/>
<path d="M31.0777 19.3776L30.0419 20.4134L32.6896 23.0611L30.0419 25.7088L31.0777 26.7446L34.7612 23.0611L31.0777 19.3776Z" fill="black"/>
<path d="M27.6319 18.6441L25.9313 27.1931L27.3681 27.4789L29.0687 18.9299L27.6319 18.6441Z" fill="black"/>
</svg>
